<?xml version="1.0" standalone="no"?>
<!DOCTYPE svg PUBLIC "-//W3C//DTD SVG 20010904//EN"
 "http://www.w3.org/TR/2001/REC-SVG-20010904/DTD/svg10.dtd">
<svg version="1.0" xmlns="http://www.w3.org/2000/svg"
 width="499.000000pt" height="500.000000pt" viewBox="0 0 499.000000 500.000000"
 preserveAspectRatio="xMidYMid meet">

<g transform="translate(0.000000,500.000000) scale(0.100000,-0.100000)"
fill="#000000" stroke="none">
<path d="M1605 3451 c-11 -5 -29 -19 -40 -31 -20 -22 -20 -38 -23 -914 -2
-639 1 -899 9 -918 25 -62 -28 -59 955 -58 589 0 902 4 915 10 50 28 49 -8 49
941 1 521 -3 895 -8 910 -6 13 -20 33 -32 44 -22 20 -38 20 -914 22 -490 1
-900 -2 -911 -6z m1602 -123 c57 -14 114 -68 131 -124 9 -31 12 -213 12 -720
0 -640 -2 -681 -19 -719 -23 -49 -65 -88 -110 -104 -54 -18 -1383 -15 -1434 3
-48 18 -73 40 -101 91 -21 40 -21 47 -24 705 -2 465 1 680 9 719 13 65 64 125
124 146 53 19 1339 22 1412 3z"/>
<path d="M1841 3241 c-58 -10 -78 -36 -86 -114 -3 -34 -5 -343 -3 -687 3 -583
4 -628 21 -653 10 -16 29 -32 43 -37 36 -14 1342 -13 1381 1 66 23 64 0 61
756 l-3 683 -28 27 -27 28 -658 1 c-361 1 -677 -1 -701 -5z m560 -362 c58 -19
94 -69 129 -182 17 -56 35 -113 40 -127 15 -43 99 -314 106 -343 11 -48 -4
-95 -36 -112 -80 -41 -135 -5 -169 113 l-22 72 -99 0 c-113 0 -108 4 -134 -95
-19 -74 -50 -105 -106 -105 -30 0 -43 6 -64 31 -14 17 -26 41 -26 53 0 22 130
459 171 575 37 106 115 151 210 120z m567 -25 c22 -25 22 -27 22 -359 l0 -333
-26 -31 c-36 -43 -93 -44 -135 -2 l-29 29 0 326 c0 235 3 332 12 352 26 56
113 67 156 18z"/>
<path d="M2337 2660 c-37 -110 -58 -192 -54 -204 5 -12 21 -16 67 -16 51 0 60
3 60 18 -1 31 -68 217 -73 202z"/>
</g>
</svg>
