<?xml version="1.0" standalone="no"?>
<!DOCTYPE svg PUBLIC "-//W3C//DTD SVG 20010904//EN"
 "http://www.w3.org/TR/2001/REC-SVG-20010904/DTD/svg10.dtd">
<svg version="1.0" xmlns="http://www.w3.org/2000/svg"
 width="514.000000pt" height="485.000000pt" viewBox="0 0 514.000000 485.000000"
 preserveAspectRatio="xMidYMid meet">

<g transform="translate(0.000000,485.000000) scale(0.100000,-0.100000)"
fill="#000000" stroke="none">
<path d="M2434 4769 c-4 -8 -3 -9 4 -5 7 4 12 3 12 -3 0 -5 8 -12 18 -14 9 -3
-2 -5 -25 -6 -24 0 -43 4 -43 9 0 6 -17 10 -38 10 -26 0 -41 -6 -50 -20 -10
-16 -10 -20 0 -20 9 0 8 -4 -2 -11 -11 -8 -12 -12 -2 -16 18 -7 16 -63 -3 -63
-8 0 -15 -4 -15 -9 0 -5 -9 -11 -21 -14 -11 -3 -23 -15 -26 -26 -4 -15 -13
-21 -34 -21 -24 0 -29 4 -29 25 0 14 -4 25 -10 25 -5 0 -10 11 -10 25 0 16 6
25 15 25 8 0 15 -7 15 -15 0 -9 9 -15 25 -15 14 0 25 5 25 10 0 6 8 10 19 10
10 0 21 9 24 20 4 14 0 20 -11 20 -15 0 -15 2 -2 10 20 12 6 24 -16 12 -19
-11 -54 -5 -54 10 0 5 -9 4 -20 -2 -11 -6 -17 -16 -14 -22 4 -7 3 -8 -4 -4 -7
4 -12 2 -12 -3 0 -6 -3 -10 -7 -10 -26 4 -33 -4 -33 -38 l0 -36 20 23 c18 21
20 22 20 4 0 -11 -14 -35 -32 -54 -27 -29 -32 -44 -35 -92 -3 -52 8 -78 20
-45 2 6 8 9 12 5 10 -10 -13 -38 -32 -38 -7 0 -23 -9 -35 -20 -21 -19 -50 -24
-112 -20 -21 1 -36 -7 -57 -29 -27 -30 -59 -41 -59 -21 0 6 5 10 10 10 6 0 10
9 10 20 0 13 7 20 20 20 11 0 20 5 20 10 0 6 9 10 20 10 16 0 20 7 20 30 0 37
-14 38 -36 5 -9 -14 -23 -25 -30 -25 -8 0 -14 -6 -14 -13 0 -7 -13 -18 -30
-24 -19 -7 -30 -18 -30 -30 0 -25 -35 -58 -83 -78 -20 -8 -37 -22 -37 -30 0
-8 -4 -15 -8 -15 -4 0 -13 -13 -19 -30 -8 -22 -18 -30 -37 -30 -27 0 -44 -16
-24 -22 6 -2 -3 -10 -20 -17 -22 -9 -32 -21 -34 -39 -2 -19 -14 -33 -40 -47
-21 -11 -38 -26 -38 -33 0 -15 -85 -102 -100 -102 -5 0 -10 -6 -10 -14 0 -8
-7 -16 -15 -20 -20 -7 -19 -46 1 -46 11 0 14 -6 9 -20 -4 -11 -2 -20 4 -20 6
0 11 5 11 10 0 6 7 10 16 10 22 0 46 27 42 47 -3 16 -6 15 -27 -6 -18 -18 -23
-20 -18 -7 4 10 7 29 7 42 0 19 5 24 26 24 33 0 54 21 54 54 0 16 6 26 15 26
11 0 15 -11 15 -40 0 -29 -4 -40 -15 -40 -11 0 -15 -13 -15 -54 0 -43 -5 -58
-25 -78 -20 -21 -33 -24 -84 -23 -33 1 -58 -2 -55 -7 8 -13 -6 -28 -21 -22 -8
4 -12 11 -9 16 4 6 -3 5 -15 -1 -44 -24 -21 -32 84 -29 57 1 107 -1 111 -5 15
-15 -45 -24 -106 -16 -36 4 -75 5 -87 2 -15 -3 -25 0 -29 11 -3 9 -13 16 -21
16 -13 0 -13 -3 -3 -15 14 -17 7 -19 -38 -6 -28 8 -36 7 -50 -10 -9 -10 -22
-19 -29 -19 -6 0 -15 -20 -19 -45 -4 -29 -13 -49 -25 -56 -11 -5 -19 -15 -19
-22 0 -18 -15 -38 -31 -41 -8 -2 -34 -12 -58 -24 -33 -15 -47 -29 -55 -53 -10
-31 -28 -45 -81 -66 -15 -5 -8 -8 28 -11 52 -3 70 7 81 51 5 20 12 27 31 27
30 0 34 -26 5 -35 -11 -3 -20 -15 -20 -26 0 -11 -7 -19 -16 -19 -9 0 -48 -31
-85 -70 -38 -38 -71 -70 -74 -70 -3 0 -5 14 -5 30 0 23 4 30 20 30 11 0 20 5
20 10 0 6 9 10 20 10 15 0 20 7 20 25 0 31 -25 33 -42 5 -7 -11 -18 -20 -25
-20 -7 0 -13 -4 -13 -9 0 -17 -52 -66 -66 -63 -8 2 -14 -5 -14 -18 0 -11 7
-20 15 -20 11 0 15 -11 15 -40 0 -29 -4 -40 -15 -40 -11 0 -15 -13 -15 -52 0
-41 -5 -59 -24 -80 -21 -25 -30 -28 -83 -28 -59 0 -60 0 -55 26 4 24 3 25 -15
15 -26 -13 -33 -32 -32 -84 0 -23 3 -36 6 -29 6 14 43 16 43 2 0 -5 -4 -10
-10 -10 -5 0 -10 -7 -10 -15 0 -10 -10 -15 -32 -15 -26 0 -30 3 -18 11 11 8
12 12 3 16 -7 2 -13 14 -13 26 0 17 -2 19 -9 8 -7 -12 -10 -11 -14 5 -2 10 -3
7 -1 -8 2 -20 -1 -28 -11 -28 -11 0 -15 -11 -15 -40 0 -33 -3 -40 -19 -40 -17
0 -20 -10 -25 -72 -3 -40 -5 -82 -4 -93 4 -52 -3 -125 -12 -125 -6 0 -8 20 -4
55 7 54 -6 92 -27 79 -15 -9 -10 34 6 50 8 8 15 26 15 40 0 14 4 28 10 31 5 3
10 20 10 36 0 18 4 28 10 24 16 -10 12 49 -5 71 -19 25 -19 38 -1 31 10 -4 13
-1 9 9 -3 8 2 21 12 28 10 7 16 22 13 37 -5 35 -22 30 -26 -9 -2 -18 -7 -30
-13 -27 -5 4 -6 -2 -2 -11 4 -11 3 -15 -5 -11 -16 11 -20 -25 -5 -49 8 -13 11
-33 6 -54 -5 -28 -8 -31 -14 -15 -6 17 -8 16 -14 -10 -4 -16 -12 -48 -18 -70
-6 -22 -11 -43 -11 -47 -1 -3 -4 -10 -8 -14 -12 -11 -9 -52 3 -56 8 -3 9 -15
4 -36 -3 -18 -10 -30 -15 -27 -5 3 -6 -63 -4 -147 2 -84 4 -171 4 -193 0 -22
3 -35 7 -29 5 7 8 -20 9 -60 1 -72 44 -264 88 -401 72 -219 230 -523 348 -669
9 -12 43 -55 76 -97 34 -41 113 -125 176 -186 563 -542 1346 -763 2127 -602
343 71 663 223 964 457 167 131 449 450 534 604 159 287 223 445 282 693 31
132 38 183 54 364 20 240 2 460 -56 706 -170 720 -650 1296 -1339 1608 -42 19
-87 37 -100 41 -14 4 -39 14 -56 21 -45 21 -294 87 -307 82 -7 -2 -21 0 -31 6
-11 5 -40 11 -65 13 -25 2 -73 8 -106 14 -99 17 -382 23 -391 9z m-56 -120
c-7 -5 -19 -9 -26 -9 -10 0 -10 3 0 14 7 7 19 11 26 8 11 -4 11 -6 0 -13z
m-190 -124 c2 -2 -2 -14 -9 -27 -8 -16 -14 -19 -17 -9 -2 7 2 17 9 22 10 6 6
9 -14 9 -17 0 -26 4 -22 10 6 9 41 5 53 -5z m-28 -65 c0 -5 -4 -10 -10 -10 -5
0 -10 5 -10 10 0 6 5 10 10 10 6 0 10 -4 10 -10z m-114 -127 c-12 -35 -46 -59
-46 -34 0 6 5 11 10 11 6 0 10 11 10 23 0 27 7 37 26 37 11 0 10 -7 0 -37z
m-231 -33 c3 -5 1 -10 -4 -10 -6 0 -11 5 -11 10 0 6 2 10 4 10 3 0 8 -4 11
-10z m105 -5 c0 -9 -8 -19 -17 -22 -26 -10 -43 -29 -43 -47 0 -9 -4 -16 -10
-16 -5 0 -10 -7 -10 -15 0 -20 -45 -65 -65 -65 -8 0 -15 -7 -15 -16 0 -9 -12
-27 -27 -40 -32 -27 -73 -32 -73 -9 0 20 65 85 85 85 8 0 15 5 15 10 0 6 9 10
20 10 13 0 20 7 20 20 0 11 5 20 10 20 6 0 10 7 10 15 0 21 61 83 83 84 9 1
17 -6 17 -14z m25 -35 c-3 -5 -11 -10 -16 -10 -6 0 -7 5 -4 10 3 6 11 10 16
10 6 0 7 -4 4 -10z m-25 -45 c0 -8 -9 -19 -20 -25 -23 -12 -28 2 -7 25 16 19
27 19 27 0z m-160 -20 c0 -11 -11 -15 -40 -15 -29 0 -40 4 -40 15 0 11 11 15
40 15 29 0 40 -4 40 -15z m-80 -49 c0 -3 -20 -25 -45 -50 -46 -47 -95 -63 -95
-30 0 20 24 44 44 44 9 0 16 5 16 10 0 6 9 10 20 10 11 0 20 5 20 10 0 6 9 10
20 10 11 0 20 -2 20 -4z m160 -26 c0 -5 -4 -10 -10 -10 -5 0 -10 5 -10 10 0 6
5 10 10 10 6 0 10 -4 10 -10z m-57 -47 c-9 -23 -29 -43 -42 -43 -5 0 -17 -7
-25 -16 -15 -14 -16 -13 -16 6 0 13 8 24 18 27 10 2 25 13 33 24 17 24 41 26
32 2z m-161 -108 c4 -56 -10 -89 -32 -74 -11 8 -12 12 -2 16 18 7 15 43 -4 43
-8 0 -22 -6 -30 -14 -16 -17 -19 -46 -4 -46 6 0 10 -4 10 -10 0 -5 -18 -10
-40 -10 -22 0 -40 5 -40 10 0 6 5 10 10 10 6 0 10 7 10 15 0 20 65 85 85 85 8
0 15 5 15 10 0 6 4 10 9 10 5 0 11 -20 13 -45z m78 16 c0 -6 -4 -13 -10 -16
-5 -3 -10 1 -10 9 0 9 5 16 10 16 6 0 10 -4 10 -9z m-172 -171 c-7 -11 -16
-20 -20 -20 -11 0 -10 9 5 25 18 21 29 18 15 -5z m-68 -50 c0 -16 -4 -30 -10
-30 -11 0 -14 43 -3 53 11 12 13 8 13 -23z m-360 -120 c0 -5 -4 -10 -10 -10
-5 0 -10 5 -10 10 0 6 5 10 10 10 6 0 10 -4 10 -10z m66 -6 c12 13 20 13 62 1
26 -8 48 -15 50 -15 1 0 2 7 2 15 0 8 7 15 15 15 8 0 15 -4 15 -10 0 -5 13
-10 29 -10 16 0 44 -3 62 -7 l34 -8 -40 -5 c-45 -6 1175 -20 1757 -20 l378 0
-2 -757 c-3 -668 -5 -758 -18 -754 -68 18 -121 12 -186 -18 -36 -17 -71 -31
-78 -31 -6 0 -26 14 -45 31 l-34 31 22 37 c46 76 82 160 102 241 28 111 23
308 -10 412 -41 128 -118 254 -208 339 -94 89 -184 143 -312 187 -69 23 -91
26 -231 26 -135 1 -165 -2 -230 -22 -85 -26 -180 -71 -180 -84 0 -5 -4 -7 -8
-4 -8 5 -111 -72 -150 -111 -10 -10 -75 -13 -286 -13 -290 0 -303 -2 -294 -47
3 -17 21 -18 243 -21 131 -2 241 -5 244 -7 8 -8 -61 -134 -77 -140 -8 -3 -67
-3 -131 0 -157 8 -275 -4 -279 -28 -8 -42 11 -47 199 -47 98 0 180 -3 182 -7
3 -5 -2 -36 -10 -70 l-16 -63 -166 0 c-173 0 -191 -4 -191 -42 0 -30 42 -38
199 -38 l149 0 4 -62 c3 -35 3 -66 1 -70 -2 -5 -77 -8 -167 -8 -166 0 -186 -4
-186 -41 0 -26 20 -29 195 -29 118 0 165 -3 172 -12 10 -13 43 -105 43 -120 0
-4 -84 -8 -186 -8 -192 0 -224 -6 -224 -40 0 -35 33 -41 228 -40 103 0 196 1
208 0 14 0 35 -19 62 -58 38 -54 98 -118 165 -175 15 -13 24 -26 21 -30 -4 -4
-216 -7 -471 -7 l-463 0 -2 723 c-1 397 -4 688 -8 647 l-6 -75 -5 105 c-2 58
-4 131 -4 163 0 47 -3 57 -17 57 -14 0 -16 -6 -12 -30 9 -40 -4 -122 -18 -114
-5 4 -7 19 -4 35 3 15 1 29 -5 31 -6 2 -8 28 -3 71 7 66 7 67 37 67 23 0 28 4
25 18 -4 13 1 18 16 20 17 1 18 -1 6 -8 -8 -5 -10 -10 -5 -10 20 0 38 17 26
24 -6 4 -10 15 -10 24 1 15 2 15 6 0 4 -16 6 -16 19 -4z m231 10 c-3 -3 -12
-4 -19 -1 -8 3 -5 6 6 6 11 1 17 -2 13 -5z m123 -20 c0 -2 -19 -4 -42 -4 -26
0 -38 4 -30 8 12 8 72 4 72 -4z m-480 -244 c0 -28 -2 -30 -38 -30 -36 0 -39
-2 -39 -30 0 -16 5 -30 10 -30 5 0 4 -7 -3 -15 -6 -8 -9 -18 -6 -23 3 -5 -10
-16 -29 -25 -31 -15 -35 -15 -35 -2 0 9 8 19 18 22 22 9 46 32 39 39 -3 4 -16
-3 -28 -15 -27 -25 -69 -28 -69 -6 0 18 43 65 60 65 5 0 10 5 10 10 0 6 7 10
15 10 8 0 15 5 15 10 0 6 9 10 20 10 13 0 20 7 20 20 0 13 7 20 20 20 16 0 20
-7 20 -30z m1666 -136 c114 -33 204 -80 282 -150 165 -148 246 -323 246 -534
0 -213 -78 -390 -237 -535 -303 -278 -782 -235 -1041 95 -112 143 -174 364
-146 525 27 155 68 250 154 358 176 221 476 319 742 241z m-1886 -73 c0 -22
-4 -43 -10 -46 -5 -3 -10 1 -10 9 0 20 -27 21 -46 2 -16 -17 -19 -46 -4 -46 6
0 10 -4 10 -10 0 -5 -18 -10 -40 -10 -22 0 -40 5 -40 10 0 6 5 10 10 10 6 0
10 7 10 15 0 20 65 85 85 85 8 0 15 5 15 10 0 6 5 10 10 10 6 0 10 -18 10 -39z
m297 -48 c-3 -10 -5 -2 -5 17 0 19 2 27 5 18 2 -10 2 -26 0 -35z m-317 -23 c0
-5 -4 -10 -10 -10 -5 0 -10 5 -10 10 0 6 5 10 10 10 6 0 10 -4 10 -10z m-110
-124 c-6 -8 -18 -12 -26 -9 -23 9 -16 23 12 23 22 0 24 -2 14 -14z m-290 -185
c0 -11 5 -21 12 -23 16 -6 3 -37 -19 -45 -29 -11 -42 -35 -43 -75 0 -27 -4
-38 -15 -38 -12 0 -15 13 -15 60 0 53 2 60 20 60 13 0 20 7 20 20 0 11 5 20
10 20 6 0 10 9 10 20 0 11 5 20 10 20 6 0 10 -9 10 -19z m-153 -303 c-3 -8 -6
-5 -6 6 -1 11 2 17 5 13 3 -3 4 -12 1 -19z m-10 -110 c-2 -13 -4 -3 -4 22 0
25 2 35 4 23 2 -13 2 -33 0 -45z m-6 -59 c-5 -13 -10 -19 -10 -12 -1 15 10 45
15 40 3 -2 0 -15 -5 -28z m2937 -326 c35 -27 40 -47 16 -81 -14 -20 -23 -22
-110 -22 -77 0 -94 3 -94 15 0 8 4 15 8 15 5 0 35 24 68 54 32 30 63 52 69 49
5 -3 25 -17 43 -30z m390 -34 c215 -163 369 -293 390 -331 43 -80 18 -184 -57
-234 -52 -34 -125 -43 -172 -20 -34 16 -355 270 -416 328 -42 41 -57 87 -48
152 13 99 92 161 193 152 43 -4 64 -13 110 -47z m-1274 -159 c100 -27 234 -40
318 -29 39 5 74 6 79 3 5 -3 9 -45 9 -94 0 -85 -1 -90 -22 -95 -13 -3 -174 -4
-358 -3 l-335 3 -3 109 c-2 81 1 112 10 118 26 16 229 9 302 -12z m635 -313
c5 -13 12 -65 16 -115 l8 -92 -614 2 -614 3 2 40 c1 22 7 73 14 113 l12 72
584 0 583 0 9 -23z"/>
<path d="M1570 4090 c0 -5 7 -10 15 -10 8 0 15 5 15 10 0 6 -7 10 -15 10 -8 0
-15 -4 -15 -10z"/>
<path d="M1177 3623 c-4 -3 -7 -11 -7 -17 0 -6 5 -5 12 2 6 6 9 14 7 17 -3 3
-9 2 -12 -2z"/>
<path d="M1263 3603 c9 -2 25 -2 35 0 9 3 1 5 -18 5 -19 0 -27 -2 -17 -5z"/>
<path d="M1365 3533 c2 -10 4 -20 4 -23 1 -3 5 2 10 10 10 15 6 30 -9 30 -4 0
-7 -8 -5 -17z"/>
<path d="M1730 3540 c-12 -8 -12 -10 -1 -10 10 0 11 -3 3 -13 -8 -10 -6 -13 8
-14 10 -1 21 4 24 12 7 19 -16 36 -34 25z"/>
<path d="M2100 3535 c-14 -17 -8 -28 15 -31 9 -1 15 6 15 16 0 26 -15 33 -30
15z"/>
<path d="M1269 3447 c0 -1 -3 -16 -5 -33 l-5 -31 558 -1 c307 -1 738 -5 958
-8 362 -6 402 -5 414 9 8 10 11 27 7 42 l-7 26 -959 -1 c-528 -1 -960 -2 -961
-3z"/>
<path d="M1240 3099 c0 -5 -4 -7 -10 -4 -16 10 -16 -52 0 -69 11 -11 63 2 55
14 -3 6 -2 10 4 10 13 0 5 42 -11 52 -18 11 -38 10 -38 -3z"/>
<path d="M1220 2875 c-14 -16 -5 -69 10 -60 5 3 11 1 14 -4 9 -15 44 -1 49 20
3 10 1 22 -4 25 -5 3 -7 9 -4 14 5 8 -17 20 -40 20 -7 0 -18 -7 -25 -15z"/>
<path d="M1226 2665 c-34 -34 -9 -81 37 -70 33 9 40 39 16 68 -13 16 -18 18
-19 7 0 -12 -2 -12 -9 -2 -6 11 -11 10 -25 -3z"/>
<path d="M1222 2448 c-15 -15 -15 -51 0 -66 29 -29 81 0 70 40 -9 37 -45 51
-70 26z"/>
<path d="M1220 2225 c-17 -20 -5 -61 20 -68 11 -3 30 3 42 13 20 15 21 21 10
44 -13 30 -52 36 -72 11z"/>
<path d="M2237 3059 c-14 -8 -17 -25 -17 -98 0 -104 3 -101 -110 -101 -59 0
-81 -4 -91 -16 -25 -30 1 -49 77 -54 l69 -5 3 -40 c3 -48 23 -94 52 -120 30
-27 25 -57 -21 -100 l-41 -40 7 -100 c7 -103 15 -125 45 -125 34 0 41 23 33
108 -5 44 -7 85 -5 91 8 24 32 9 62 -40 17 -29 45 -66 61 -83 23 -24 28 -36
23 -56 -8 -29 -8 -49 1 -148 7 -78 23 -100 59 -80 17 9 18 19 12 98 -5 53 -4
90 2 94 6 3 27 -1 48 -10 21 -9 84 -20 139 -25 91 -8 108 -12 193 -56 73 -37
97 -45 110 -36 27 17 25 37 -11 99 -48 81 -67 144 -67 217 -1 35 -9 86 -20
117 -30 85 -33 81 78 78 l97 -3 3 27 c4 36 -15 43 -131 53 -62 5 -91 4 -101
-4 -12 -10 -25 -4 -70 33 -30 24 -71 52 -91 61 -19 10 -35 21 -35 26 0 16 49
21 123 14 81 -7 105 5 92 44 -7 24 -21 28 -137 36 l-86 6 -38 -41 c-40 -43
-85 -54 -101 -25 -14 24 -84 55 -125 55 l-38 0 0 70 c0 56 -3 71 -18 79 -11 6
-24 6 -35 0z m123 -237 c0 -5 -23 -32 -52 -61 -53 -54 -74 -54 -61 -1 9 41 43
70 80 70 18 0 33 -4 33 -8z m143 -68 c7 -7 -52 -64 -66 -64 -5 0 -5 -5 -1 -12
4 -6 3 -8 -4 -4 -6 3 -29 -18 -54 -49 -23 -30 -47 -55 -52 -55 -4 0 -6 26 -4
57 4 51 9 61 43 89 20 18 47 35 59 37 36 7 72 7 79 1z m181 -85 c69 -61 102
-133 110 -244 3 -49 12 -104 18 -122 7 -18 9 -35 5 -39 -3 -4 -26 -2 -49 5
-24 6 -87 15 -140 20 -88 9 -103 13 -153 47 -65 43 -105 91 -105 126 0 28 35
84 83 137 39 41 144 111 167 111 10 0 38 -19 64 -41z"/>
<path d="M2156 4729 c4 -8 0 -9 -15 -4 -11 3 -29 1 -38 -5 -16 -10 -16 -11 4
-7 12 3 24 0 26 -7 3 -8 9 -7 20 3 19 15 22 31 6 31 -5 0 -7 -5 -3 -11z"/>
<path d="M2210 4736 c0 -2 7 -9 15 -16 9 -7 15 -8 15 -2 0 5 -7 12 -15 16 -8
3 -15 4 -15 2z"/>
<path d="M2010 4701 c-8 -6 -18 -7 -22 -5 -4 3 -8 0 -8 -5 0 -6 -18 -14 -41
-17 -24 -4 -36 -10 -28 -14 8 -6 6 -11 -9 -19 -28 -15 -37 -14 -24 2 9 10 3
13 -27 12 -22 0 -37 -4 -34 -8 3 -5 -1 -8 -8 -6 -8 1 -21 1 -29 0 -13 -1 -13
-3 -1 -10 9 -6 22 -6 32 0 11 5 19 5 21 -1 4 -13 68 -22 68 -9 0 5 5 9 11 9 5
0 8 -4 5 -8 -3 -5 10 -4 29 2 22 7 35 17 35 28 0 9 9 20 20 23 11 3 20 11 20
16 0 5 5 9 11 9 5 0 7 -4 4 -10 -3 -6 1 -7 10 -3 13 5 14 7 3 14 -16 11 -20
11 -38 0z"/>
<path d="M2037 4643 c-4 -3 -7 -15 -7 -25 0 -10 -6 -18 -12 -18 -7 0 -18 -11
-25 -25 -6 -14 -7 -25 -2 -25 5 0 9 -4 9 -10 0 -5 -6 -10 -14 -10 -13 0 -56
-57 -56 -74 0 -12 48 -6 53 7 2 6 8 9 12 5 4 -4 -3 -16 -16 -27 -14 -11 -20
-23 -15 -28 5 -4 11 -2 13 5 3 6 11 12 20 12 26 0 43 27 45 74 1 37 5 46 20
46 21 0 24 35 6 75 -11 25 -19 30 -31 18z"/>
<path d="M1655 4589 c-7 -10 21 -38 40 -39 5 0 -1 7 -14 16 -18 13 -20 18 -10
25 10 6 10 9 2 9 -6 0 -15 -5 -18 -11z"/>
<path d="M1780 4580 c26 -7 20 -13 -25 -23 -11 -3 -4 -5 15 -6 48 -1 70 13 42
28 -11 6 -29 11 -39 10 -13 -1 -11 -3 7 -9z"/>
<path d="M1576 4561 c-4 -5 -2 -12 3 -15 5 -4 12 -2 15 3 4 5 2 12 -3 15 -5 4
-12 2 -15 -3z"/>
<path d="M1860 4551 c0 -6 5 -13 10 -16 6 -3 10 1 10 9 0 9 -4 16 -10 16 -5 0
-10 -4 -10 -9z"/>
<path d="M1890 4540 c0 -5 7 -7 15 -4 8 4 15 8 15 10 0 2 -7 4 -15 4 -8 0 -15
-4 -15 -10z"/>
<path d="M1279 4383 c-13 -16 -12 -17 4 -4 9 7 17 15 17 17 0 8 -8 3 -21 -13z"/>
<path d="M1665 4377 c-4 -10 -5 -21 -1 -24 10 -10 18 4 13 24 -4 17 -4 17 -12
0z"/>
<path d="M1646 4331 c-4 -7 -5 -15 -2 -18 9 -9 19 4 14 18 -4 11 -6 11 -12 0z"/>
<path d="M1340 4040 c0 -5 5 -10 10 -10 6 0 10 5 10 10 0 6 -4 10 -10 10 -5 0
-10 -4 -10 -10z"/>
<path d="M1220 3880 c0 -5 13 -10 29 -10 17 0 33 5 36 10 4 6 -8 10 -29 10
-20 0 -36 -4 -36 -10z"/>
<path d="M1255 3800 c-3 -5 1 -10 9 -10 9 0 16 5 16 10 0 6 -4 10 -9 10 -6 0
-13 -4 -16 -10z"/>
<path d="M1120 3765 c0 -14 5 -25 10 -25 6 0 10 11 10 25 0 14 -4 25 -10 25
-5 0 -10 -11 -10 -25z"/>
<path d="M1261 3766 c-16 -19 -11 -29 8 -17 7 5 12 14 9 21 -3 9 -8 7 -17 -4z"/>
<path d="M1200 3756 c0 -8 -6 -17 -12 -19 -7 -3 -3 -6 10 -6 16 -1 22 5 22 19
0 11 -4 20 -10 20 -5 0 -10 -6 -10 -14z"/>
<path d="M1010 3720 c0 -5 -11 -12 -25 -16 -18 -4 -25 -13 -25 -30 0 -13 5
-24 10 -24 6 0 10 5 10 10 0 6 9 10 20 10 13 0 20 7 20 20 0 11 5 20 10 20 6
0 10 5 10 10 0 6 -7 10 -15 10 -8 0 -15 -4 -15 -10z"/>
<path d="M827 3563 c-4 -3 -7 -17 -7 -30 0 -16 6 -23 20 -23 13 0 20 7 20 20
0 11 5 20 10 20 6 0 10 5 10 10 0 11 -43 14 -53 3z"/>
<path d="M640 3340 c0 -5 5 -10 10 -10 6 0 10 5 10 10 0 6 -4 10 -10 10 -5 0
-10 -4 -10 -10z"/>
<path d="M375 3271 c3 -5 1 -11 -5 -13 -5 -1 -6 -8 -2 -15 6 -9 11 -7 19 7 10
15 9 19 -3 24 -8 3 -13 2 -9 -3z"/>
<path d="M458 3273 c-24 -6 -23 -23 2 -23 11 0 20 7 20 15 0 8 -1 14 -2 14 -2
-1 -11 -3 -20 -6z"/>
<path d="M540 3240 c0 -5 5 -10 10 -10 6 0 10 5 10 10 0 6 -4 10 -10 10 -5 0
-10 -4 -10 -10z"/>
<path d="M390 3229 c0 -15 18 -19 23 -6 3 8 -1 14 -9 14 -8 0 -14 -4 -14 -8z"/>
<path d="M370 3211 c0 -5 7 -12 16 -15 14 -5 15 -4 4 9 -14 17 -20 19 -20 6z"/>
<path d="M468 3214 c-5 -4 -8 -21 -8 -38 0 -21 3 -27 11 -19 6 6 9 23 7 38 -2
15 -6 23 -10 19z"/>
<path d="M345 3180 c3 -5 1 -11 -5 -15 -5 -3 -10 -15 -10 -27 0 -14 5 -18 16
-14 9 3 18 6 20 6 3 0 2 5 -1 10 -3 6 0 13 9 16 20 8 10 29 -14 31 -11 1 -18
-2 -15 -7z"/>
<path d="M588 3138 c-16 -16 -28 -31 -28 -33 0 -10 -60 -65 -72 -65 -8 0 -23
-7 -34 -15 -10 -8 -27 -15 -37 -15 -15 0 -57 -53 -57 -72 0 -5 14 -8 30 -8 21
0 30 5 30 16 0 20 24 44 44 44 9 0 16 5 16 10 0 6 9 10 20 10 11 0 20 5 20 10
0 6 9 10 20 10 16 0 20 7 20 30 0 28 2 30 40 30 l40 0 0 40 c0 48 -14 50 -52
8z"/>
<path d="M441 3143 c-1 -6 -10 -15 -21 -18 -38 -12 -11 -55 34 -55 22 0 25 3
17 18 -5 9 -14 28 -19 42 -6 14 -11 20 -11 13z"/>
<path d="M290 3050 c-1 -14 -2 -37 -2 -53 0 -18 -3 -25 -11 -20 -7 4 -5 -2 3
-12 14 -18 15 -17 18 6 2 13 9 30 15 38 9 11 9 13 0 8 -8 -5 -13 3 -16 25 -3
28 -4 29 -7 8z"/>
<path d="M572 3032 c-12 -12 -26 -22 -31 -22 -12 0 -23 -31 -15 -39 4 -3 9 0
11 7 3 6 11 12 20 12 21 0 45 27 41 47 -3 16 -6 15 -26 -5z"/>
<path d="M221 2574 c0 -11 3 -14 6 -6 3 7 2 16 -1 19 -3 4 -6 -2 -5 -13z"/>
</g>
</svg>
