<?xml version="1.0" standalone="no"?>
<!DOCTYPE svg PUBLIC "-//W3C//DTD SVG 20010904//EN"
 "http://www.w3.org/TR/2001/REC-SVG-20010904/DTD/svg10.dtd">
<svg version="1.0" xmlns="http://www.w3.org/2000/svg"
 width="513.000000pt" height="486.000000pt" viewBox="0 0 513.000000 486.000000"
 preserveAspectRatio="xMidYMid meet">

<g transform="translate(0.000000,486.000000) scale(0.100000,-0.100000)"
fill="#000000" stroke="none">
<path d="M2515 4203 c-33 -1 -100 -8 -150 -14 -77 -9 -115 -17 -225 -43 -38
-10 -174 -68 -208 -90 -20 -13 -51 -39 -69 -57 -57 -61 -61 -82 -63 -327 l-1
-222 418 -2 418 -3 0 -65 0 -65 -655 -5 c-490 -4 -664 -8 -692 -18 -108 -37
-218 -145 -282 -277 -79 -164 -111 -338 -103 -565 6 -167 9 -195 33 -280 48
-171 97 -271 178 -365 98 -114 183 -145 400 -145 l151 0 1 208 c2 459 83 601
378 669 58 14 162 18 571 23 485 5 502 6 555 28 70 28 163 102 207 166 67 97
68 109 68 621 l0 460 -27 57 c-45 96 -158 186 -293 233 -27 9 -59 21 -70 25
-66 26 -378 66 -460 58 -11 -1 -47 -3 -80 -5z m-302 -262 c64 -28 90 -69 90
-142 -1 -48 -6 -66 -26 -93 -73 -95 -222 -85 -271 17 -43 91 5 191 105 222 57
18 51 18 102 -4z"/>
</g>
</svg>
