<?xml version="1.0" standalone="no"?>
<!DOCTYPE svg PUBLIC "-//W3C//DTD SVG 20010904//EN"
 "http://www.w3.org/TR/2001/REC-SVG-20010904/DTD/svg10.dtd">
<svg version="1.0" xmlns="http://www.w3.org/2000/svg"
 width="512.000000pt" height="512.000000pt" viewBox="0 0 512.000000 512.000000"
 preserveAspectRatio="xMidYMid meet">

<g transform="translate(0.000000,512.000000) scale(0.100000,-0.100000)"
fill="#000000" stroke="none">
<path d="M2440 4754 c-260 -139 -555 -371 -715 -564 -244 -293 -328 -548 -312
-950 6 -164 28 -265 79 -370 18 -36 32 -68 32 -72 1 -4 -60 -38 -135 -76 -592
-298 -862 -680 -919 -1297 -13 -141 -13 -312 1 -395 53 -335 309 -610 641
-690 81 -19 119 -20 1449 -20 l1366 0 95 24 c161 41 291 119 410 244 113 120
191 280 217 442 22 137 8 423 -30 615 -97 486 -365 811 -888 1077 -75 38 -136
73 -135 76 0 4 14 36 32 72 64 131 75 200 76 445 0 174 -3 237 -17 303 -60
281 -222 535 -495 779 -207 184 -552 403 -634 403 -20 0 -67 -19 -118 -46z
m162 -1030 l38 -7 -34 -37 c-18 -20 -36 -43 -40 -51 -5 -12 -7 -12 -12 0 -4 8
-22 31 -41 52 l-34 38 28 4 c47 7 57 7 95 1z m-14 -472 c51 -83 122 -105 326
-100 75 2 136 2 136 0 0 -10 -88 -144 -121 -184 -50 -59 -145 -129 -219 -159
-78 -32 -222 -32 -300 0 -74 30 -169 100 -219 159 -33 40 -121 174 -121 184 0
2 61 2 136 0 75 -2 160 2 188 8 63 13 117 50 142 95 10 19 21 35 24 35 3 0 15
-17 28 -38z m1092 -1722 l0 -690 -1120 0 -1120 0 0 690 0 690 1120 0 1120 0 0
-690z m0 -955 l0 -65 -1120 0 -1120 0 0 65 0 65 1120 0 1120 0 0 -65z"/>
<path d="M2485 2144 c-165 -26 -333 -135 -410 -268 -122 -210 -106 -482 38
-651 23 -27 37 -55 42 -85 15 -97 71 -171 159 -211 36 -16 68 -19 246 -19 178
0 210 3 246 19 88 40 144 114 159 211 5 29 19 58 40 83 45 52 91 150 111 233
31 132 4 291 -71 420 -63 108 -197 211 -324 248 -57 17 -185 27 -236 20z"/>
</g>
</svg>
